<svg xmlns="http://www.w3.org/2000/svg" version="1.1" xmlns:xlink="http://www.w3.org/1999/xlink" viewBox="0 0 200 200"><rect width="200" height="200" fill="url('#gradient')"></rect><defs><linearGradient id="gradient" gradientTransform="rotate(45 0.5 0.5)"><stop offset="0%" stop-color="#475b3e"></stop><stop offset="100%" stop-color="#4ed012"></stop></linearGradient></defs><g><g fill="#445272" transform="matrix(1.604177545691906,0,0,1.604177545691906,34.04595868302698,111.87325735764466)" stroke="#c8512e" stroke-width="0.2"><path d="M3.77-14.22L6.59-3.87L9.42-14.22L13.25-14.22L8.47 0L4.72 0L-0.03-14.22L3.77-14.22ZM21.62-3.78L21.62-3.78Q21.62-4.53 21.09-4.95Q20.56-5.37 19.22-5.82Q17.88-6.27 17.03-6.69L17.03-6.69Q14.27-8.05 14.27-10.42L14.27-10.42Q14.27-11.60 14.96-12.50Q15.64-13.41 16.90-13.91Q18.16-14.41 19.74-14.41L19.74-14.41Q21.27-14.41 22.49-13.87Q23.70-13.32 24.38-12.31Q25.05-11.30 25.05-10L25.05-10L21.63-10Q21.63-10.87 21.10-11.35Q20.57-11.83 19.66-11.83L19.66-11.83Q18.74-11.83 18.21-11.42Q17.68-11.02 17.68-10.39L17.68-10.39Q17.68-9.84 18.26-9.40Q18.85-8.96 20.32-8.48Q21.80-8.01 22.74-7.46L22.74-7.46Q25.05-6.13 25.05-3.80L25.05-3.80Q25.05-1.93 23.64-0.87Q22.24 0.20 19.79 0.20L19.79 0.20Q18.06 0.20 16.66-0.42Q15.25-1.04 14.55-2.12Q13.84-3.20 13.84-4.61L13.84-4.61L17.28-4.61Q17.28-3.47 17.87-2.92Q18.46-2.38 19.79-2.38L19.79-2.38Q20.63-2.38 21.13-2.75Q21.62-3.12 21.62-3.78ZM39.88-4.81L43.29-4.81Q43.22-3.33 42.49-2.19Q41.76-1.05 40.43-0.43Q39.11 0.20 37.41 0.20L37.41 0.20Q34.61 0.20 33.00-1.63Q31.39-3.46 31.39-6.79L31.39-6.79L31.39-7.49Q31.39-9.58 32.11-11.15Q32.84-12.71 34.21-13.57Q35.58-14.42 37.37-14.42L37.37-14.42Q39.96-14.42 41.53-13.06Q43.11-11.70 43.32-9.31L43.32-9.31L39.90-9.31Q39.86-10.61 39.25-11.17Q38.63-11.74 37.37-11.74L37.37-11.74Q36.09-11.74 35.50-10.78Q34.90-9.82 34.87-7.72L34.87-7.72L34.87-6.72Q34.87-4.44 35.44-3.47Q36.02-2.49 37.41-2.49L37.41-2.49Q38.59-2.49 39.22-3.05Q39.84-3.60 39.88-4.81L39.88-4.81ZM47.98-15L47.98-9.43Q49.03-10.76 50.67-10.76L50.67-10.76Q52.42-10.76 53.31-9.73Q54.20-8.69 54.22-6.67L54.22-6.67L54.22 0L50.92 0L50.92-6.59Q50.92-7.43 50.58-7.83Q50.23-8.22 49.41-8.22L49.41-8.22Q48.40-8.22 47.98-7.58L47.98-7.58L47.98 0L44.69 0L44.69-15L47.98-15ZM65.29 0L62.00 0Q61.83-0.32 61.69-0.95L61.69-0.95Q60.78 0.20 59.15 0.20L59.15 0.20Q57.66 0.20 56.61-0.71Q55.57-1.61 55.57-2.98L55.57-2.98Q55.57-4.70 56.84-5.58Q58.11-6.46 60.53-6.46L60.53-6.46L61.54-6.46L61.54-7.01Q61.54-8.47 60.28-8.47L60.28-8.47Q59.11-8.47 59.11-7.31L59.11-7.31L55.82-7.31Q55.82-8.85 57.12-9.80Q58.43-10.76 60.45-10.76Q62.47-10.76 63.64-9.78Q64.81-8.79 64.84-7.07L64.84-7.07L64.84-2.39Q64.86-0.94 65.29-0.17L65.29-0.17L65.29 0ZM59.94-2.15L59.94-2.15Q60.56-2.15 60.96-2.41Q61.37-2.68 61.54-3.01L61.54-3.01L61.54-4.70L60.59-4.70Q58.87-4.70 58.87-3.15L58.87-3.15Q58.87-2.71 59.17-2.43Q59.47-2.15 59.94-2.15ZM67.21-13.19L70.50-13.19L70.50-10.57L72.24-10.57L72.24-8.28L70.50-8.28L70.50-3.45Q70.50-2.85 70.71-2.62Q70.93-2.38 71.56-2.38L71.56-2.38Q72.05-2.38 72.38-2.44L72.38-2.44L72.38-0.09Q71.49 0.20 70.53 0.20L70.53 0.20Q68.83 0.20 68.02-0.61Q67.21-1.41 67.21-3.04L67.21-3.04L67.21-8.28L65.86-8.28L65.86-10.57L67.21-10.57L67.21-13.19ZM79.06-2.97L79.06-2.97Q79.06-3.39 78.62-3.64Q78.18-3.90 76.95-4.17Q75.72-4.44 74.92-4.89Q74.12-5.33 73.70-5.97Q73.28-6.60 73.28-7.42L73.28-7.42Q73.28-8.88 74.48-9.82Q75.68-10.76 77.63-10.76L77.63-10.76Q79.72-10.76 80.99-9.81Q82.26-8.87 82.26-7.32L82.26-7.32L78.96-7.32Q78.96-8.59 77.62-8.59L77.62-8.59Q77.10-8.59 76.75-8.31Q76.40-8.02 76.40-7.59L76.40-7.59Q76.40-7.15 76.83-6.88Q77.26-6.60 78.20-6.43Q79.14-6.25 79.85-6.01L79.85-6.01Q82.24-5.19 82.24-3.07L82.24-3.07Q82.24-1.62 80.95-0.71Q79.67 0.20 77.63 0.20L77.63 0.20Q76.27 0.20 75.21-0.29Q74.14-0.78 73.54-1.62Q72.95-2.46 72.95-3.39L72.95-3.39L76.03-3.39Q76.04-2.66 76.51-2.32Q76.98-1.98 77.71-1.98L77.71-1.98Q78.39-1.98 78.73-2.26Q79.06-2.53 79.06-2.97Z"></path></g></g></svg>